<svg width="313" height="83" viewBox="0 0 313 83" fill="none" xmlns="http://www.w3.org/2000/svg">
<rect width="313" height="83" rx="5" fill="white"/>
<rect x="0.5" y="0.5" width="312" height="82" rx="4.5" stroke="#808080" stroke-opacity="0.55" stroke-dasharray="2 2"/>
<rect x="0.5" y="0.5" width="312" height="82" rx="4.5" stroke="black" stroke-opacity="0.2" stroke-dasharray="2 2"/>
<path d="M171.812 39.1875C167.849 39.1875 164.625 42.4117 164.625 46.375C164.625 50.3383 167.849 53.5625 171.812 53.5625C175.776 53.5625 179 50.3383 179 46.375C179 42.4117 175.776 39.1875 171.812 39.1875ZM174.625 47H172.438V49.1875C172.438 49.5328 172.158 49.8125 171.812 49.8125C171.467 49.8125 171.188 49.5328 171.188 49.1875V47H169C168.655 47 168.375 46.7203 168.375 46.375C168.375 46.0297 168.655 45.75 169 45.75H171.188V43.5625C171.188 43.2172 171.467 42.9375 171.812 42.9375C172.158 42.9375 172.438 43.2172 172.438 43.5625V45.75H174.625C174.97 45.75 175.25 46.0297 175.25 46.375C175.25 46.7203 174.97 47 174.625 47Z" fill="#8E8E93"/>
<path d="M169.882 38.1602C170.341 38.0523 170.52 37.4945 170.209 37.1406L164.092 30.1641C163.617 29.6227 162.932 29.3117 162.212 29.3117C162.212 29.3117 162.212 29.3117 162.211 29.3117C161.491 29.3125 160.805 29.6234 160.33 30.1664L152.027 39.6633L148.177 35.2719C147.702 34.7305 147.017 34.4195 146.298 34.4195C146.297 34.4195 146.297 34.4195 146.296 34.4195C145.575 34.4203 144.89 34.7313 144.416 35.2742L140.25 40.0383V24.9688C140.25 23.1562 141.719 21.6875 143.531 21.6875H169.469C171.281 21.6875 172.75 23.1562 172.75 24.9688V37.4539C172.75 37.7539 172.966 38.0109 173.262 38.0625L173.274 38.0648C173.653 38.1313 174 37.8391 174 37.4547V24.9688C174 22.4664 171.971 20.4375 169.469 20.4375H143.531C141.029 20.4375 139 22.4664 139 24.9688V42.4688C139 44.9711 141.029 47 143.531 47H162.756C163.097 47 163.375 46.7219 163.375 46.3812V46.375C163.375 42.3867 166.157 39.0352 169.882 38.1602Z" fill="#8E8E93"/>
<path d="M152.335 30.3604C154.014 30.1074 155.17 28.5411 154.917 26.862C154.664 25.1828 153.098 24.0266 151.419 24.2796C149.74 24.5326 148.583 26.0989 148.836 27.7781C149.089 29.4572 150.656 30.6134 152.335 30.3604Z" fill="#8E8E93"/>
<path d="M136.868 66.14H133.22L132.548 68H131.396L134.42 59.684H135.68L138.692 68H137.54L136.868 66.14ZM136.556 65.252L135.044 61.028L133.532 65.252H136.556ZM139.602 64.688C139.602 64.016 139.738 63.428 140.01 62.924C140.282 62.412 140.654 62.016 141.126 61.736C141.606 61.456 142.142 61.316 142.734 61.316C143.246 61.316 143.722 61.436 144.162 61.676C144.602 61.908 144.938 62.216 145.17 62.6V59.12H146.274V68H145.17V66.764C144.954 67.156 144.634 67.48 144.21 67.736C143.786 67.984 143.29 68.108 142.722 68.108C142.138 68.108 141.606 67.964 141.126 67.676C140.654 67.388 140.282 66.984 140.01 66.464C139.738 65.944 139.602 65.352 139.602 64.688ZM145.17 64.7C145.17 64.204 145.07 63.772 144.87 63.404C144.67 63.036 144.398 62.756 144.054 62.564C143.718 62.364 143.346 62.264 142.938 62.264C142.53 62.264 142.158 62.36 141.822 62.552C141.486 62.744 141.218 63.024 141.018 63.392C140.818 63.76 140.718 64.192 140.718 64.688C140.718 65.192 140.818 65.632 141.018 66.008C141.218 66.376 141.486 66.66 141.822 66.86C142.158 67.052 142.53 67.148 142.938 67.148C143.346 67.148 143.718 67.052 144.054 66.86C144.398 66.66 144.67 66.376 144.87 66.008C145.07 65.632 145.17 65.196 145.17 64.7ZM147.711 64.688C147.711 64.016 147.847 63.428 148.119 62.924C148.391 62.412 148.763 62.016 149.235 61.736C149.715 61.456 150.251 61.316 150.843 61.316C151.355 61.316 151.831 61.436 152.271 61.676C152.711 61.908 153.047 62.216 153.279 62.6V59.12H154.383V68H153.279V66.764C153.063 67.156 152.743 67.48 152.319 67.736C151.895 67.984 151.399 68.108 150.831 68.108C150.247 68.108 149.715 67.964 149.235 67.676C148.763 67.388 148.391 66.984 148.119 66.464C147.847 65.944 147.711 65.352 147.711 64.688ZM153.279 64.7C153.279 64.204 153.179 63.772 152.979 63.404C152.779 63.036 152.507 62.756 152.163 62.564C151.827 62.364 151.455 62.264 151.047 62.264C150.639 62.264 150.267 62.36 149.931 62.552C149.595 62.744 149.327 63.024 149.127 63.392C148.927 63.76 148.827 64.192 148.827 64.688C148.827 65.192 148.927 65.632 149.127 66.008C149.327 66.376 149.595 66.66 149.931 66.86C150.267 67.052 150.639 67.148 151.047 67.148C151.455 67.148 151.827 67.052 152.163 66.86C152.507 66.66 152.779 66.376 152.979 66.008C153.179 65.632 153.279 65.196 153.279 64.7ZM160.52 67.112H163.448V68H159.428V59.636H160.52V67.112ZM167.476 68.108C166.86 68.108 166.3 67.968 165.796 67.688C165.3 67.408 164.908 67.012 164.62 66.5C164.34 65.98 164.2 65.38 164.2 64.7C164.2 64.028 164.344 63.436 164.632 62.924C164.928 62.404 165.328 62.008 165.832 61.736C166.336 61.456 166.9 61.316 167.524 61.316C168.148 61.316 168.712 61.456 169.216 61.736C169.72 62.008 170.116 62.4 170.404 62.912C170.7 63.424 170.848 64.02 170.848 64.7C170.848 65.38 170.696 65.98 170.392 66.5C170.096 67.012 169.692 67.408 169.18 67.688C168.668 67.968 168.1 68.108 167.476 68.108ZM167.476 67.148C167.868 67.148 168.236 67.056 168.58 66.872C168.924 66.688 169.2 66.412 169.408 66.044C169.624 65.676 169.732 65.228 169.732 64.7C169.732 64.172 169.628 63.724 169.42 63.356C169.212 62.988 168.94 62.716 168.604 62.54C168.268 62.356 167.904 62.264 167.512 62.264C167.112 62.264 166.744 62.356 166.408 62.54C166.08 62.716 165.816 62.988 165.616 63.356C165.416 63.724 165.316 64.172 165.316 64.7C165.316 65.236 165.412 65.688 165.604 66.056C165.804 66.424 166.068 66.7 166.396 66.884C166.724 67.06 167.084 67.148 167.476 67.148ZM174.995 61.316C175.563 61.316 176.059 61.44 176.483 61.688C176.915 61.936 177.235 62.248 177.443 62.624V61.424H178.547V68.144C178.547 68.744 178.419 69.276 178.163 69.74C177.907 70.212 177.539 70.58 177.059 70.844C176.587 71.108 176.035 71.24 175.403 71.24C174.539 71.24 173.819 71.036 173.243 70.628C172.667 70.22 172.327 69.664 172.223 68.96H173.303C173.423 69.36 173.671 69.68 174.047 69.92C174.423 70.168 174.875 70.292 175.403 70.292C176.003 70.292 176.491 70.104 176.867 69.728C177.251 69.352 177.443 68.824 177.443 68.144V66.764C177.227 67.148 176.907 67.468 176.483 67.724C176.059 67.98 175.563 68.108 174.995 68.108C174.411 68.108 173.879 67.964 173.399 67.676C172.927 67.388 172.555 66.984 172.283 66.464C172.011 65.944 171.875 65.352 171.875 64.688C171.875 64.016 172.011 63.428 172.283 62.924C172.555 62.412 172.927 62.016 173.399 61.736C173.879 61.456 174.411 61.316 174.995 61.316ZM177.443 64.7C177.443 64.204 177.343 63.772 177.143 63.404C176.943 63.036 176.671 62.756 176.327 62.564C175.991 62.364 175.619 62.264 175.211 62.264C174.803 62.264 174.431 62.36 174.095 62.552C173.759 62.744 173.491 63.024 173.291 63.392C173.091 63.76 172.991 64.192 172.991 64.688C172.991 65.192 173.091 65.632 173.291 66.008C173.491 66.376 173.759 66.66 174.095 66.86C174.431 67.052 174.803 67.148 175.211 67.148C175.619 67.148 175.991 67.052 176.327 66.86C176.671 66.66 176.943 66.376 177.143 66.008C177.343 65.632 177.443 65.196 177.443 64.7ZM183.261 68.108C182.645 68.108 182.085 67.968 181.581 67.688C181.085 67.408 180.693 67.012 180.405 66.5C180.125 65.98 179.985 65.38 179.985 64.7C179.985 64.028 180.129 63.436 180.417 62.924C180.713 62.404 181.113 62.008 181.617 61.736C182.121 61.456 182.685 61.316 183.309 61.316C183.933 61.316 184.497 61.456 185.001 61.736C185.505 62.008 185.901 62.4 186.189 62.912C186.485 63.424 186.633 64.02 186.633 64.7C186.633 65.38 186.481 65.98 186.177 66.5C185.881 67.012 185.477 67.408 184.965 67.688C184.453 67.968 183.885 68.108 183.261 68.108ZM183.261 67.148C183.653 67.148 184.021 67.056 184.365 66.872C184.709 66.688 184.985 66.412 185.193 66.044C185.409 65.676 185.517 65.228 185.517 64.7C185.517 64.172 185.413 63.724 185.205 63.356C184.997 62.988 184.725 62.716 184.389 62.54C184.053 62.356 183.689 62.264 183.297 62.264C182.897 62.264 182.529 62.356 182.193 62.54C181.865 62.716 181.601 62.988 181.401 63.356C181.201 63.724 181.101 64.172 181.101 64.7C181.101 65.236 181.197 65.688 181.389 66.056C181.589 66.424 181.853 66.7 182.181 66.884C182.509 67.06 182.869 67.148 183.261 67.148Z" fill="#8E8E93"/>
</svg>
