<svg width="56" height="56" viewBox="0 0 56 56" fill="none" xmlns="http://www.w3.org/2000/svg">
<rect width="56" height="56" rx="28" fill="url(#paint0_linear_20_2165)"/>
<path d="M28.002 28.5783C32.2877 28.5783 35.7911 25.0749 35.7911 20.7891C35.7911 16.5034 32.2877 13 28.002 13C23.7162 13 20.2129 16.5034 20.2129 20.7891C20.2129 25.0749 23.7163 28.5783 28.002 28.5783Z" fill="url(#paint1_linear_20_2165)"/>
<path d="M41.3695 34.8028C41.1654 34.2926 40.8933 33.8164 40.5872 33.3742C39.0225 31.0612 36.6076 29.5306 33.8865 29.1565C33.5464 29.1225 33.1723 29.1905 32.9001 29.3946C31.4716 30.449 29.7709 30.9932 28.0022 30.9932C26.2334 30.9932 24.5328 30.449 23.1042 29.3946C22.8321 29.1905 22.4579 29.0885 22.1178 29.1565C19.3967 29.5306 16.9477 31.0612 15.4171 33.3742C15.111 33.8164 14.8389 34.3266 14.6348 34.8028C14.5328 35.0069 14.5668 35.245 14.6688 35.4491C14.941 35.9252 15.2811 36.4015 15.5872 36.8096C16.0634 37.4559 16.5736 38.0341 17.1518 38.5783C17.628 39.0545 18.1722 39.4967 18.7165 39.9388C21.4035 41.9457 24.6348 43 27.9682 43C31.3015 43 34.5328 41.9456 37.2199 39.9388C37.7641 39.5307 38.3083 39.0545 38.7845 38.5783C39.3287 38.0341 39.8729 37.4558 40.3492 36.8096C40.6893 36.3674 40.9955 35.9252 41.2675 35.4491C41.4375 35.245 41.4715 35.0068 41.3695 34.8028Z" fill="url(#paint2_linear_20_2165)"/>
<defs>
<linearGradient id="paint0_linear_20_2165" x1="11.5" y1="1.22935e-07" x2="43" y2="56" gradientUnits="userSpaceOnUse">
<stop stop-color="#06E81C"/>
<stop offset="1" stop-color="#00A00F"/>
</linearGradient>
<linearGradient id="paint1_linear_20_2165" x1="28.002" y1="13" x2="28.002" y2="28.5783" gradientUnits="userSpaceOnUse">
<stop stop-color="#DEDEDE"/>
<stop offset="1" stop-color="#FEFEFE"/>
</linearGradient>
<linearGradient id="paint2_linear_20_2165" x1="28.0001" y1="29.1355" x2="28.0001" y2="43" gradientUnits="userSpaceOnUse">
<stop stop-color="#DEDEDE"/>
<stop offset="1" stop-color="#FEFEFE"/>
</linearGradient>
</defs>
</svg>
